<?xml version="1.0" encoding="utf-8"?>
<!-- Generator: Fusion 360, Shaper Origin Export Add-In, Version 1.8.0  -->
<svg xmlns="http://www.w3.org/2000/svg" xmlns:xlink="http://www.w3.org/1999/xlink" xmlns:shaper="http://www.shapertools.com/namespaces/shaper" shaper:fusionaddin="version:1.8.0" width="22.86cm" height="48.43cm" version="1.1" x="0cm" y="0cm" viewBox="0 0 22.86 48.43" enable-background="new 0 0 22.86 48.43" xml:space="preserve"><path d="M3.6480093,23.4515463 L10.5905364,23.4515463 10.5905364,16.6702646 3.6480093,16.6702646 3.6480093,23.4515463z" transform="matrix(1,0,0,-1,11.43,24.3)" stroke="rgb(100,100,100)" stroke-width="0.0010cm" stroke-linecap="round" stroke-linejoin="round" fill="none" /><path d="M-10.5905364,23.4515463 L-3.6480093,23.4515463 -3.6480093,16.6702646 -10.5905364,16.6702646 -10.5905364,23.4515463z" transform="matrix(1,0,0,-1,11.43,24.3)" stroke="rgb(100,100,100)" stroke-width="0.0010cm" stroke-linecap="round" stroke-linejoin="round" fill="none" /><path d="M10.5905364,-23.4515463 L3.6480093,-23.4515463 3.6480093,-16.6702646 10.5905364,-16.6702646 10.5905364,-23.4515463z" transform="matrix(1,0,0,-1,11.43,24.3)" stroke="rgb(100,100,100)" stroke-width="0.0010cm" stroke-linecap="round" stroke-linejoin="round" fill="none" /><path d="M-3.6480093,-23.4515463 L-10.5905364,-23.4515463 -10.5905364,-16.6702646 -3.6480093,-16.6702646 -3.6480093,-23.4515463z" transform="matrix(1,0,0,-1,11.43,24.3)" stroke="rgb(100,100,100)" stroke-width="0.0010cm" stroke-linecap="round" stroke-linejoin="round" fill="none" /><path d="M-11.43,24.3 L-11.43,-24.13 11.43,-24.13 11.43,24.3 -11.43,24.3z" transform="matrix(1,0,0,-1,11.43,24.3)" stroke="rgb(100,100,100)" stroke-width="0.0010cm" stroke-linecap="round" stroke-linejoin="round" fill="none" /><path d="M0,-7 L0,-7 0.1034148,-6.9988048 0.2067943,-6.9952194 0.3101031,-6.9892452 0.4133061,-6.9808842 0.5163679,-6.9701392 0.6192534,-6.957014 0.7219274,-6.9415129 0.8243549,-6.9236413 0.9265008,-6.9034052 1.0283304,-6.8808117 1.1298087,-6.8558684 1.2309013,-6.8285838 1.3315735,-6.7989672 1.4317909,-6.7670288 1.5315195,-6.7327795 1.630725,-6.6962309 1.7293736,-6.6573956 1.8274316,-6.6162868 1.9248655,-6.5729185 2.0216422,-6.5273056 2.1177284,-6.4794636 2.2130914,-6.4294089 2.3076987,-6.3771585 2.4015179,-6.3227304 2.4945169,-6.266143 2.5866641,-6.2074158 2.677928,-6.1465687 2.7682773,-6.0836226 2.8576813,-6.018599 2.9461094,-5.95152 3.0335314,-5.8824085 3.1199174,-5.8112882 3.205238,-5.7381834 3.289464,-5.663119 3.3725666,-5.5861206 3.4545176,-5.5072146 3.5352888,-5.4264278 3.6148527,-5.343788 3.6931821,-5.2593232 3.7702504,-5.1730624 3.846031,-5.085035 3.9204983,-4.9952711 3.9936267,-4.9038013 4.0653913,-4.8106568 4.1357676,-4.7158695 4.2047315,-4.6194717 4.2722595,-4.5214964 4.3383286,-4.421977 4.4029161,-4.3209475 4.466,-4.2184425 4.5275588,-4.1144968 4.5875714,-4.009146 4.6460173,-3.9024261 4.7028767,-3.7943735 4.75813,-3.6850251 4.8117584,-3.5744184 4.8637436,-3.4625909 4.9140679,-3.349581 4.962714,-3.2354272 5.0096653,-3.1201685 5.0549059,-3.0038443 5.0984202,-2.8864942 5.1401934,-2.7681584 5.1802112,-2.6488774 5.21846,-2.5286917 5.2549267,-2.4076424 5.2895988,-2.285771 5.3224645,-2.163119 5.3535126,-2.0397282 5.3827325,-1.9156409 5.4101143,-1.7908994 5.4356484,-1.6655464 5.4593263,-1.5396245 5.4811398,-1.4131769 5.5010815,-1.2862466 5.5191447,-1.1588771 5.535323,-1.0311119 5.549611,-0.9029945 5.5620038,-0.7745688 5.5724973,-0.6458785 5.5810877,-0.5169677 5.5877721,-0.3878803 5.5925484,-0.2586605 5.5954148,-0.1293523 5.5963704,-0 5.5954148,0.1293523 5.5925484,0.2586605 5.5877721,0.3878803 5.5810877,0.5169677 5.5724973,0.6458785 5.5620038,0.7745688 5.549611,0.9029945 5.535323,1.0311119 5.5191447,1.1588771 5.5010815,1.2862466 5.4811398,1.4131769 5.4593263,1.5396245 5.4356484,1.6655464 5.4101143,1.7908994 5.3827325,1.9156409 5.3535126,2.0397282 5.3224645,2.163119 5.2895988,2.285771 5.2549267,2.4076424 5.21846,2.5286917 5.1802112,2.6488774 5.1401934,2.7681584 5.0984202,2.8864942 5.0549059,3.0038443 5.0096653,3.1201685 4.962714,3.2354272 4.9140679,3.349581 4.8637436,3.4625909 4.8117584,3.5744184 4.75813,3.6850251 4.7028767,3.7943735 4.6460173,3.9024261 4.5875714,4.009146 4.5275588,4.1144968 4.466,4.2184425 4.4029161,4.3209475 4.3383286,4.421977 4.2722595,4.5214964 4.2047315,4.6194717 4.1357676,4.7158695 4.0653913,4.8106568 3.9936267,4.9038013 3.9204983,4.9952711 3.846031,5.085035 3.7702504,5.1730624 3.6931821,5.2593232 3.6148527,5.343788 3.5352888,5.4264278 3.4545176,5.5072146 3.3725666,5.5861206 3.289464,5.663119 3.205238,5.7381834 3.1199174,5.8112882 3.0335314,5.8824085 2.9461094,5.95152 2.8576813,6.018599 2.7682773,6.0836226 2.677928,6.1465687 2.5866641,6.2074158 2.4945169,6.266143 2.4015179,6.3227304 2.3076987,6.3771585 2.2130914,6.4294089 2.1177284,6.4794636 2.0216422,6.5273056 1.9248655,6.5729185 1.8274316,6.6162868 1.7293736,6.6573956 1.630725,6.6962309 1.5315195,6.7327795 1.4317909,6.7670288 1.3315735,6.7989672 1.2309013,6.8285838 1.1298087,6.8558684 1.0283304,6.8808117 0.9265008,6.9034052 0.8243549,6.9236413 0.7219274,6.9415129 0.6192534,6.957014 0.5163679,6.9701392 0.4133061,6.9808842 0.3101031,6.9892452 0.2067943,6.9952194 0.1034148,6.9988048 -0,7 -0.1034148,6.9988048 -0.2067943,6.9952194 -0.3101031,6.9892452 -0.4133061,6.9808842 -0.5163679,6.9701392 -0.6192534,6.957014 -0.7219274,6.9415129 -0.8243549,6.9236413 -0.9265008,6.9034052 -1.0283304,6.8808117 -1.1298087,6.8558684 -1.2309013,6.8285838 -1.3315735,6.7989672 -1.4317909,6.7670288 -1.5315195,6.7327795 -1.630725,6.6962309 -1.7293736,6.6573956 -1.8274316,6.6162868 -1.9248655,6.5729185 -2.0216422,6.5273056 -2.1177284,6.4794636 -2.2130914,6.4294089 -2.3076987,6.3771585 -2.4015179,6.3227304 -2.4945169,6.266143 -2.5866641,6.2074158 -2.677928,6.1465687 -2.7682773,6.0836226 -2.8576813,6.018599 -2.9461094,5.95152 -3.0335314,5.8824085 -3.1199174,5.8112882 -3.205238,5.7381834 -3.289464,5.663119 -3.3725666,5.5861206 -3.4545176,5.5072146 -3.5352888,5.4264278 -3.6148527,5.343788 -3.6931821,5.2593232 -3.7702504,5.1730624 -3.846031,5.085035 -3.9204983,4.9952711 -3.9936267,4.9038013 -4.0653913,4.8106568 -4.1357676,4.7158695 -4.2047315,4.6194717 -4.2722595,4.5214964 -4.3383286,4.421977 -4.4029161,4.3209475 -4.466,4.2184425 -4.5275588,4.1144968 -4.5875714,4.009146 -4.6460173,3.9024261 -4.7028767,3.7943735 -4.75813,3.6850251 -4.8117584,3.5744184 -4.8637436,3.4625909 -4.9140679,3.349581 -4.962714,3.2354272 -5.0096653,3.1201685 -5.0549059,3.0038443 -5.0984202,2.8864942 -5.1401934,2.7681584 -5.1802112,2.6488774 -5.21846,2.5286917 -5.2549267,2.4076424 -5.2895988,2.285771 -5.3224645,2.163119 -5.3535126,2.0397282 -5.3827325,1.9156409 -5.4101143,1.7908994 -5.4356484,1.6655464 -5.4593263,1.5396245 -5.4811398,1.4131769 -5.5010815,1.2862466 -5.5191447,1.1588771 -5.535323,1.0311119 -5.549611,0.9029945 -5.5620038,0.7745688 -5.5724973,0.6458785 -5.5810877,0.5169677 -5.5877721,0.3878803 -5.5925484,0.2586605 -5.5954148,0.1293523 -5.5963704,0 -5.5954148,-0.1293523 -5.5925484,-0.2586605 -5.5877721,-0.3878803 -5.5810877,-0.5169677 -5.5724973,-0.6458785 -5.5620038,-0.7745688 -5.549611,-0.9029945 -5.535323,-1.0311119 -5.5191447,-1.1588771 -5.5010815,-1.2862466 -5.4811398,-1.4131769 -5.4593263,-1.5396245 -5.4356484,-1.6655464 -5.4101143,-1.7908994 -5.3827325,-1.9156409 -5.3535126,-2.0397282 -5.3224645,-2.163119 -5.2895988,-2.285771 -5.2549267,-2.4076424 -5.21846,-2.5286917 -5.1802112,-2.6488774 -5.1401934,-2.7681584 -5.0984202,-2.8864942 -5.0549059,-3.0038443 -5.0096653,-3.1201685 -4.962714,-3.2354272 -4.9140679,-3.349581 -4.8637436,-3.4625909 -4.8117584,-3.5744184 -4.75813,-3.6850251 -4.7028767,-3.7943735 -4.6460173,-3.9024261 -4.5875714,-4.009146 -4.5275588,-4.1144968 -4.466,-4.2184425 -4.4029161,-4.3209475 -4.3383286,-4.421977 -4.2722595,-4.5214964 -4.2047315,-4.6194717 -4.1357676,-4.7158695 -4.0653913,-4.8106568 -3.9936267,-4.9038013 -3.9204983,-4.9952711 -3.846031,-5.085035 -3.7702504,-5.1730624 -3.6931821,-5.2593232 -3.6148527,-5.343788 -3.5352888,-5.4264278 -3.4545176,-5.5072146 -3.3725666,-5.5861206 -3.289464,-5.663119 -3.205238,-5.7381834 -3.1199174,-5.8112882 -3.0335314,-5.8824085 -2.9461094,-5.95152 -2.8576813,-6.018599 -2.7682773,-6.0836226 -2.677928,-6.1465687 -2.5866641,-6.2074158 -2.4945169,-6.266143 -2.4015179,-6.3227304 -2.3076987,-6.3771585 -2.2130914,-6.4294089 -2.1177284,-6.4794636 -2.0216422,-6.5273056 -1.9248655,-6.5729185 -1.8274316,-6.6162868 -1.7293736,-6.6573956 -1.630725,-6.6962309 -1.5315195,-6.7327795 -1.4317909,-6.7670288 -1.3315735,-6.7989672 -1.2309013,-6.8285838 -1.1298087,-6.8558684 -1.0283304,-6.8808117 -0.9265008,-6.9034052 -0.8243549,-6.9236413 -0.7219274,-6.9415129 -0.6192534,-6.957014 -0.5163679,-6.9701392 -0.4133061,-6.9808842 -0.3101031,-6.9892452 -0.2067943,-6.9952194 -0.1034148,-6.9988048 0,-7z" transform="matrix(1,0,0,-1,11.43,24.3)" stroke="rgb(100,100,100)" stroke-width="0.0010cm" stroke-linecap="round" stroke-linejoin="round" fill="none" /></svg>