<?xml version="1.0" encoding="utf-8"?>
<!-- Generator: Fusion 360, Shaper Origin Export Add-In, Version 1.8.0  -->
<svg xmlns="http://www.w3.org/2000/svg" xmlns:xlink="http://www.w3.org/1999/xlink" xmlns:shaper="http://www.shapertools.com/namespaces/shaper" shaper:fusionaddin="version:1.8.0" width="42.5cm" height="27.7403084cm" version="1.1" x="0cm" y="0cm" viewBox="0 0 42.5 27.7403084" enable-background="new 0 0 42.5 27.7403084" xml:space="preserve"><path d="M-19.6617626,16 a0.29895,0.29895 0 1,1 0.5979,0 a0.29895,0.29895 0 1,1 -0.5979,0z" transform="matrix(1,0,0,-1,20.372,27.7526943)" stroke="rgb(100,100,100)" stroke-width="0.0010cm" stroke-linecap="round" stroke-linejoin="round" fill="none" /><path d="M-0.2860817,1.0215734 a0.29895,0.29895 0 1,1 0.5979,0 a0.29895,0.29895 0 1,1 -0.5979,0z" transform="matrix(1,0,0,-1,20.372,27.7526943)" stroke="rgb(100,100,100)" stroke-width="0.0010cm" stroke-linecap="round" stroke-linejoin="round" fill="none" /><path d="M-0.2860817,26.7435068 a0.29895,0.29895 0 1,1 0.5979,0 a0.29895,0.29895 0 1,1 -0.5979,0z" transform="matrix(1,0,0,-1,20.372,27.7526943)" stroke="rgb(100,100,100)" stroke-width="0.0010cm" stroke-linecap="round" stroke-linejoin="round" fill="none" /><path d="M20.8198626,16 a0.29895,0.29895 0 1,1 0.5979,0 a0.29895,0.29895 0 1,1 -0.5979,0z" transform="matrix(1,0,0,-1,20.372,27.7526943)" stroke="rgb(100,100,100)" stroke-width="0.0010cm" stroke-linecap="round" stroke-linejoin="round" fill="none" /><path d="M22.128,13.0060584 L22.128,19.0060584 3.0154614,19.0060584 3.0189267,25.8526943 3.0189267,27.7526943 -2.9810733,27.7526943 -2.9848938,19.0060584 -20.372,19.0060584 -20.372,13.0060584 -2.9875146,13.0060584 -2.9931902,0.0123859 3.0068098,0.0123859 3.0068098,1.9123859 3.0124246,13.0060584 22.128,13.0060584z" transform="matrix(1,0,0,-1,20.372,27.7526943)" stroke="rgb(100,100,100)" stroke-width="0.0010cm" stroke-linecap="round" stroke-linejoin="round" fill="none" /></svg>