<?xml version="1.0" encoding="UTF-8"?><svg id="Layer_2" xmlns="http://www.w3.org/2000/svg" viewBox="0 0 81.86 81.86"><g id="Layer_1-2"><path d="M81.32,47.52c.35-2.15,.54-4.35,.54-6.6,0-2.11-.16-4.18-.47-6.2l-35.52,4.34,28.23-22.09c-2.52-3.49-5.57-6.56-9.05-9.1l-22.11,28.26L47.3,.5c-2.08-.32-4.2-.5-6.37-.5s-4.36,.18-6.46,.51l4.35,35.62L16.74,7.92c-3.46,2.54-6.51,5.62-9.02,9.1l28.17,22.04L.47,34.74c-.31,2.02-.47,4.09-.47,6.19,0,2.24,.19,4.44,.53,6.59l35.36-4.32L7.9,65.09c2.53,3.45,5.58,6.48,9.04,8.99l21.87-27.96-4.3,35.23c2.09,.33,4.23,.5,6.42,.5s4.26-.17,6.32-.49l-4.3-35.25,21.91,28c3.47-2.5,6.53-5.54,9.06-8.98l-28.05-21.94,35.45,4.33Z"/></g></svg>