<?xml version="1.0" encoding="UTF-8"?><svg id="Layer_2" xmlns="http://www.w3.org/2000/svg" viewBox="0 0 33.45 33.45"><g id="Layer_1-2"><path d="M27.82,18.54l5.44,.58c.11-.78,.19-1.58,.19-2.39,0-.76-.07-1.51-.17-2.24l-5.44,.58c-.27-1.82-.97-3.49-2-4.91l4.25-3.44c-.93-1.24-2.03-2.35-3.27-3.29l-3.44,4.25c-1.42-1.05-3.09-1.76-4.91-2.05L19.05,.18c-.76-.11-1.53-.18-2.32-.18s-1.56,.07-2.32,.18l.58,5.44c-1.82,.28-3.49,1-4.91,2.05L6.62,3.42c-1.24,.94-2.34,2.05-3.27,3.29l4.25,3.44c-1.03,1.42-1.73,3.1-2,4.91L.17,14.48c-.1,.73-.17,1.48-.17,2.24,0,.81,.08,1.61,.19,2.39l5.44-.58c.29,1.8,1.01,3.45,2.05,4.86l-4.25,3.44c.94,1.23,2.04,2.33,3.28,3.26l3.44-4.25c1.41,1.02,3.06,1.72,4.85,1.99l-.58,5.44c.76,.1,1.52,.18,2.31,.18s1.55-.07,2.31-.18l-.58-5.44c1.79-.28,3.44-.97,4.85-1.99l3.44,4.25c1.24-.93,2.34-2.02,3.28-3.26l-4.25-3.44c1.04-1.41,1.75-3.06,2.05-4.86Z"/></g></svg>