<?xml version="1.0" encoding="UTF-8"?><svg id="Layer_2" xmlns="http://www.w3.org/2000/svg" viewBox="0 0 61.06 61.06"><g id="Layer_1-2"><path d="M41.47,33.19l19.29,1.57c.19-1.38,.3-2.8,.3-4.23s-.1-2.77-.28-4.12l-19.31,1.57c-.28-1.18-.74-2.28-1.36-3.29l14.79-12.56c-1.69-2.23-3.68-4.22-5.9-5.92l-12.57,14.79c-1-.62-2.11-1.08-3.29-1.36L34.71,.29c-1.37-.19-2.76-.29-4.18-.29s-2.81,.1-4.18,.29l1.58,19.36c-1.18,.28-2.28,.74-3.29,1.36L12.07,6.22c-2.23,1.69-4.22,3.68-5.9,5.92l14.79,12.56c-.62,1-1.08,2.11-1.36,3.29L.28,26.41c-.18,1.35-.28,2.72-.28,4.12s.11,2.85,.3,4.23l19.29-1.57c.28,1.18,.74,2.28,1.36,3.29l-14.73,12.52c1.69,2.22,3.68,4.21,5.91,5.89l12.51-14.73c1,.62,2.11,1.08,3.29,1.36l-1.57,19.24c1.36,.19,2.76,.29,4.17,.29s2.81-.1,4.17-.29l-1.57-19.24c1.18-.28,2.28-.74,3.29-1.36l12.51,14.73c2.23-1.69,4.22-3.67,5.91-5.89l-14.73-12.52c.62-1,1.08-2.11,1.36-3.29Z"/></g></svg>